nColumns=19
nRows=96
DataType=double
version=3
OpenSimVersion=4.1
endheader
time	ground_force_1_vx	ground_force_1_vy	ground_force_1_vz	ground_force_1_px	ground_force_1_py	ground_force_1_pz	ground_force_1_mx	ground_force_1_my	ground_force_1_mz	ground_force_2_vx	ground_force_2_vy	ground_force_2_vz	ground_force_2_px	ground_force_2_py	ground_force_2_pz	ground_force_2_mx	ground_force_2_my	ground_force_2_mz
1.87	0	0	0	0	0	0	0	0	0	-131.579	1142.71	-21.1266	1.28238	0	-0.404243	0	-4.14698	0
1.88	0	0	0	0	0	0	0	0	0	-177.102	1347.33	-30.9139	1.26475	0	-0.406031	0	-3.68275	0
1.89	0	0	0	0	0	0	0	0	0	-226.842	1428.62	-40.0479	1.24159	0	-0.409589	0	-2.81468	0
1.9	0	0	0	0	0	0	0	0	0	-257.551	1550.09	-41.0667	1.21292	0	-0.411943	0	-1.60911	0
1.91	0	0	0	0	0	0	0	0	0	-237.328	1720.49	-38.7913	1.1819	0	-0.413	0	-0.016581	0
1.92	0	0	0	0	0	0	0	0	0	-183.329	1862.37	-39.4169	1.14852	0	-0.413752	-0	2.05309	-0
1.93	0	0	0	0	0	0	0	0	0	-117.422	1936.95	-42.7795	1.1124	0	-0.414169	-0	4.58697	-0
1.94	0	0	0	0	0	0	0	0	0	-45.7842	1947.82	-47.2959	1.07504	0	-0.414277	-0	7.39996	-0
1.95	0	0	0	0	0	0	0	0	0	27.3008	1899.61	-52.4796	1.0378	0	-0.413937	-0	10.167	-0
1.96	0	0	0	0	0	0	0	0	0	100.917	1792.68	-58.0917	1.00121	0	-0.412975	-0	12.5079	-0
1.97	0	0	0	0	0	0	0	0	0	173.112	1628.19	-63.2119	0.963755	0	-0.411314	-0	14.078	-0
1.98	0	0	0	0	0	0	0	0	0	231.539	1412.41	-67.4588	0.924728	0	-0.409563	-0	14.6372	-0
1.99	0	0	0	0	0	0	0	0	0	263.152	1160.96	-69.7671	0.884647	0	-0.408315	-0	14.089	-0
2	0	0	0	0	0	0	0	0	0	263.743	895.588	-68.0246	0.844016	0	-0.407618	-0	12.4992	-0
2.01	0	0	0	0	0	0	0	0	0	237.472	639.975	-61.6924	0.804697	0	-0.408102	-0	10.0953	-0
2.02	0	0	0	0	0	0	0	0	0	189.022	417.786	-51.4414	0.771177	0	-0.409899	-0	7.23483	-0
2.03	0	0	0	0	0	0	0	0	0	129.828	244.072	-38.5216	0.746159	0	-0.410524	-0	4.34218	-0
2.04	0	0	0	0	0	0	0	0	0	74.7764	122.683	-25.7992	0.724405	0	-0.406329	-0	1.82317	-0
2.05	0	0	0	0	0	0	0	0	0	32.6975	50.3295	-15.6617	0.688547	0	-0.39781	0	-0.022755	0
2.06	0	0	0	0	0	0	0	0	0	9.08649	16.7392	-7.98644	0.637303	0	-0.369911	0	-1.0574	0
2.07	0	0	0	0	0	0	0	0	0	0	0	0	0	0	0	0	0	0
2.08	0	0	0	0	0	0	0	0	0	0	0	0	0	0	0	0	0	0
2.09	0	0	0	0	0	0	0	0	0	0	0	0	0	0	0	0	0	0
2.1	0	0	0	0	0	0	0	0	0	0	0	0	0	0	0	0	0	0
2.11	0	0	0	0	0	0	0	0	0	0	0	0	0	0	0	0	0	0
2.12	0	0	0	0	0	0	0	0	0	0	0	0	0	0	0	0	0	0
2.13	-3.91226	10.9884	-5.22896	1.25642	0	-0.512133	-0	3.71238	-0	0	0	0	0	0	0	0	0	0
2.14	-12.8575	51.3729	-7.81972	1.33811	0	-0.442815	-0	3.58644	-0	0	0	0	0	0	0	0	0	0
2.15	-34.4949	184.841	-7.13677	1.33783	0	-0.435579	-0	2.46701	-0	0	0	0	0	0	0	0	0	0
2.16	-62.297	480.954	3.31318	1.32603	0	-0.432357	-0	0.33167	-0	0	0	0	0	0	0	0	0	0
2.17	-89.7473	899.255	23.9428	1.31074	0	-0.428634	0	-2.45573	0	0	0	0	0	0	0	0	0	0
2.18	-132.819	1253.1	41.3005	1.29672	0	-0.427943	0	-5.24409	0	0	0	0	0	0	0	0	0	0
2.19	-192.559	1428.94	44.2698	1.28195	0	-0.429223	0	-7.42812	0	0	0	0	0	0	0	0	0	0
2.2	-244.916	1523.89	36.9758	1.26019	0	-0.429403	0	-8.75766	0	0	0	0	0	0	0	0	0	0
2.21	-270.318	1664.26	27.6795	1.23194	0	-0.428635	0	-9.38917	0	0	0	0	0	0	0	0	0	0
2.22	-250.132	1836.98	22.1645	1.19947	0	-0.42797	0	-9.70197	0	0	0	0	0	0	0	0	0	0
2.23	-199.112	1969.27	22.027	1.16525	0	-0.427899	0	-10.0513	0	0	0	0	0	0	0	0	0	0
2.24	-130.566	2025.66	25.2994	1.13077	0	-0.427966	0	-10.6104	0	0	0	0	0	0	0	0	0	0
2.25	-56.2335	2008.64	30.0396	1.09612	0	-0.428064	0	-11.3415	0	0	0	0	0	0	0	0	0	0
2.26	19.4797	1928.24	36.1724	1.06057	0	-0.428462	0	-12.0396	0	0	0	0	0	0	0	0	0	0
2.27	95.3782	1788.98	44.0972	1.02324	0	-0.429262	0	-12.3917	0	0	0	0	0	0	0	0	0	0
2.28	167.545	1591.46	52.2866	0.984775	0	-0.430661	0	-12.048	0	0	0	0	0	0	0	0	0	0
2.29	222.182	1343.18	57.9917	0.947083	0	-0.432188	0	-10.7302	0	0	0	0	0	0	0	0	0	0
2.3	245.951	1062.81	58.0526	0.911404	0	-0.433392	0	-8.36592	0	0	0	0	0	0	0	0	0	0
2.31	237.294	775.4	50.5289	0.876623	0	-0.434312	0	-5.18771	0	0	0	0	0	0	0	0	0	0
2.32	204.69	511.329	37.2535	0.841201	0	-0.43518	0	-1.71743	0	0	0	0	0	0	0	0	0	0
2.33	154.56	298.544	23.7758	0.804221	0	-0.435737	-0	1.39928	-0	0	0	0	0	0	0	0	0	0
2.34	95.8898	150.293	14.0023	0.76407	0	-0.434706	-0	3.63722	-0	0	0	0	0	0	0	0	0	0
2.35	45.5317	62.9235	7.09201	0.726854	0	-0.431557	-0	4.77278	-0	0	0	0	0	0	0	0	0	0
2.36	17.2722	21.8525	1.7896	0.754825	0	-0.42045	-0	4.91184	-0	0	0	0	0	0	0	0	0	0
2.37	0	0	0	0	0	0	0	0	0	0	0	0	0	0	0	0	0	0
2.38	0	0	0	0	0	0	0	0	0	0	0	0	0	0	0	0	0	0
2.39	0	0	0	0	0	0	0	0	0	0	0	0	0	0	0	0	0	0
2.4	0	0	0	0	0	0	0	0	0	0	0	0	0	0	0	0	0	0
2.41	0	0	0	0	0	0	0	0	0	0	0	0	0	0	0	0	0	0
2.42	0	0	0	0	0	0	0	0	0	0	0	0	0	0	0	0	0	0
2.43	0	0	0	0	0	0	0	0	0	0	0	0	0	0	0	0	0	0
2.44	0	0	0	0	0	0	0	0	0	0	0	0	0	0	0	0	0	0
2.45	0	0	0	0	0	0	0	0	0	-16.4072	33.3188	-6.22851	1.2722	0	-0.449386	0	-1.34035	0
2.46	0	0	0	0	0	0	0	0	0	-47.583	123.203	-5.74571	1.33505	0	-0.459322	0	-3.69177	0
2.47	0	0	0	0	0	0	0	0	0	-96.6928	360.355	-0.583675	1.34399	0	-0.454673	0	-6.19891	0
2.48	0	0	0	0	0	0	0	0	0	-146.15	777.201	9.37761	1.33387	0	-0.447094	0	-8.25645	0
2.49	0	0	0	0	0	0	0	0	0	-187.838	1205.92	14.7124	1.31919	0	-0.443225	0	-9.25119	0
2.5	0	0	0	0	0	0	0	0	0	-224.5	1428.71	7.63582	1.30285	0	-0.443994	0	-8.82425	0
2.51	0	0	0	0	0	0	0	0	0	-257.955	1521.15	-3.37777	1.28018	0	-0.445792	0	-6.99836	0
2.52	0	0	0	0	0	0	0	0	0	-269.932	1652.66	-9.32564	1.25145	0	-0.445656	0	-4.07365	0
2.53	0	0	0	0	0	0	0	0	0	-239.346	1813.01	-13.4504	1.22133	0	-0.444679	0	-0.451954	0
2.54	0	0	0	0	0	0	0	0	0	-191.146	1920.26	-18.976	1.1897	0	-0.443855	-0	3.44633	-0
2.55	0	0	0	0	0	0	0	0	0	-133.666	1950.58	-24.3912	1.15509	0	-0.443234	-0	7.20238	-0
2.56	0	0	0	0	0	0	0	0	0	-64.0596	1920.43	-28.1275	1.11809	0	-0.442771	-0	10.4317	-0
2.57	0	0	0	0	0	0	0	0	0	12.9533	1842.11	-30.7305	1.08065	0	-0.442038	-0	12.8339	-0
2.58	0	0	0	0	0	0	0	0	0	89.8192	1713.34	-32.728	1.04344	0	-0.440814	-0	14.2349	-0
2.59	0	0	0	0	0	0	0	0	0	157.307	1530.58	-33.4614	1.00554	0	-0.439251	-0	14.6087	-0
2.6	0	0	0	0	0	0	0	0	0	203.46	1302.47	-32.9272	0.966554	0	-0.437755	-0	14.0704	-0
2.61	0	0	0	0	0	0	0	0	0	222.062	1046.19	-32.1069	0.926305	0	-0.436829	-0	12.8282	-0
2.62	0	0	0	0	0	0	0	0	0	215.728	784.703	-31.9852	0.885996	0	-0.437327	-0	11.1105	-0
2.63	0	0	0	0	0	0	0	0	0	191.182	545.205	-31.5386	0.848015	0	-0.439177	-0	9.11354	-0
2.64	0	0	0	0	0	0	0	0	0	152.477	348.12	-28.535	0.814752	0	-0.440575	-0	7.00295	-0
2.65	0	0	0	0	0	0	0	0	0	105.531	199.542	-23.2331	0.787447	0	-0.43894	-0	4.94453	-0
2.66	0	0	0	0	0	0	0	0	0	59.6585	97.2672	-17.8222	0.760605	0	-0.435296	-0	3.11289	-0
2.67	0	0	0	0	0	0	0	0	0	24.1989	37.821	-12.3486	0.726561	0	-0.431803	-0	1.66762	-0
2.68	0	0	0	0	0	0	0	0	0	5.81318	12.5838	-6.2735	0.756698	0	-0.374061	-0	0.724362	-0
2.69	0	0	0	0	0	0	0	0	0	0	0	0	0	0	0	0	0	0
2.7	0	0	0	0	0	0	0	0	0	0	0	0	0	0	0	0	0	0
2.71	0	0	0	0	0	0	0	0	0	0	0	0	0	0	0	0	0	0
2.72	0	0	0	0	0	0	0	0	0	0	0	0	0	0	0	0	0	0
2.73	0	0	0	0	0	0	0	0	0	0	0	0	0	0	0	0	0	0
2.74	0	0	0	0	0	0	0	0	0	0	0	0	0	0	0	0	0	0
2.75	0	0	0	0	0	0	0	0	0	0	0	0	0	0	0	0	0	0
2.76	-3.63242	16.0418	-6.13126	1.30103	0	-0.379549	-0	3.32623	-0	0	0	0	0	0	0	0	0	0
2.77	-15.0033	64.9869	-9.66237	1.31845	0	-0.44127	-0	2.87036	-0	0	0	0	0	0	0	0	0	0
2.78	-36.6701	212.889	-9.60283	1.31695	0	-0.454416	-0	1.77322	-0	0	0	0	0	0	0	0	0	0
2.79	-57.1982	516.103	1.14183	1.31226	0	-0.449594	-0	0.119058	-0	0	0	0	0	0	0	0	0	0
2.8	-71.5682	902.613	19.2968	1.30138	0	-0.444181	0	-1.73934	0	0	0	0	0	0	0	0	0	0
2.81	-98.4495	1185.7	30.3624	1.28778	0	-0.443042	0	-3.32687	0	0	0	0	0	0	0	0	0	0
2.82	-140.858	1302.42	27.6973	1.27068	0	-0.443347	0	-4.34925	0	0	0	0	0	0	0	0	0	0
